<svg width="713" height="713" viewBox="0 0 713 713" fill="none" xmlns="http://www.w3.org/2000/svg">
<g opacity="0.75" clip-path="url(#clip0)">
<path fill-rule="evenodd" clip-rule="evenodd" d="M0.000666536 357.825C0.377146 553.547 160.671 713.379 356.5 712.999C553.087 712.999 713 552.414 713 355.556C712.739 261.01 674.915 170.438 607.849 103.761C540.782 37.0841 449.963 -0.238686 355.367 0.00114876C158.781 0.00114876 -0.375813 160.21 0.000666536 357.825ZM323.988 257.377V678.615C186.377 670.303 27.9769 547.112 31.3802 349.889C32.0975 306.396 41.5627 263.491 59.2124 223.729C76.8621 183.967 102.336 148.161 134.116 118.442C165.897 88.7226 203.336 65.6979 244.203 50.7382C285.071 35.7785 328.532 29.1898 372 31.3641C556.866 40.4324 695.987 198.372 680.111 385.03C663.854 576.974 495.621 685.794 357.257 680.128V400.596H405.269V371.503H358.014V342.792H403.38V314.052H358.014V285.714H404.889V257.377H323.988ZM146.827 255.87V401.016H179.765V342.659L238.153 401.016H283.568L210.072 327.559L270.094 255.87H228.173L179.765 312.233V255.87H146.827ZM465.215 255.87L517.614 333.681V399.022H550.051V333.681L603.948 255.87H563.025L534.578 300.76L504.636 255.87H465.215Z" fill="#4CD964" fill-opacity="0.25"/>
</g>
<defs>
<clipPath id="clip0">
<rect width="713" height="713" fill="white"/>
</clipPath>
</defs>
</svg>
