<svg width="28" height="28" viewBox="0 0 28 28" fill="none" xmlns="http://www.w3.org/2000/svg">
<path d="M27.563 0.172C27.891 0.406 28.047 0.781 27.985 1.172L23.985 25.172C23.938 25.469 23.751 25.719 23.485 25.875C23.344 25.953 23.172 26 23.001 26C22.876 26 22.751 25.969 22.626 25.922L15.548 23.031L11.767 27.64C11.58 27.874 11.298 27.999 11.001 27.999C10.892 27.999 10.767 27.983 10.657 27.936C10.266 27.795 10.001 27.42 10.001 26.998V21.545L23.501 4.998L6.798 19.451L0.625998 16.92C0.266998 16.779 0.0319985 16.451 0.000998478 16.061C-0.0150015 15.686 0.172998 15.327 0.500998 15.139L26.501 0.139C26.657 0.0449999 26.829 -0.00200009 27.001 -0.00200009C27.204 -0.00200009 27.407 0.0609999 27.563 0.17V0.172Z" fill="#999999"/>
</svg>
